<svg class="svg-icon" style="width: 1em; height: 1em;vertical-align: middle;fill: currentColor;overflow: hidden;" viewBox="0 0 1024 1024" version="1.1" xmlns="http://www.w3.org/2000/svg"><path d="M512 832a64 64 0 0 1 64 64v64a64 64 0 0 1-128 0v-64a64 64 0 0 1 64-64zM512 192a64 64 0 0 1-64-64V64a64 64 0 0 1 128 0v64a64 64 0 0 1-64 64z m448 256a64 64 0 0 1 0 128h-64a64 64 0 0 1 0-128h64zM192 512a64 64 0 0 1-64 64H64a64 64 0 0 1 0-128h64a64 64 0 0 1 64 64z m636.8 226.304l45.248 45.248a64 64 0 0 1-90.496 90.496l-45.248-45.248a64 64 0 0 1 90.496-90.496z m-633.6-452.608l-45.248-45.248a63.936 63.936 0 1 1 90.496-90.496l45.248 45.248A63.936 63.936 0 1 1 195.2 285.696z m633.6 0a63.936 63.936 0 1 1-90.496-90.496l45.248-45.248a63.936 63.936 0 1 1 90.496 90.496l-45.248 45.248z m-633.6 452.608a64 64 0 0 1 90.496 90.496l-45.248 45.248a64 64 0 0 1-90.496-90.496l45.248-45.248zM512 256a256 256 0 1 0 0 512 256 256 0 0 0 0-512z m0 416a160 160 0 1 1 0-320 160 160 0 0 1 0 320z"  /></svg>